# xmcd
#
# Track frame offsets:
#	150
#	39461
#	57860
#	75493
#	96893
#	123945
#	149105
#	179765
#	202757
#	223270
#	239840
#	255807
#	277743
#	297233
#
# Disc length: 4175 seconds
#
# Revision: 0
# Processed by: cddbd v1.5.1PL2 Copyright (c) Steve Scherf et al.
# Submitted via: audiograbber 1.83.01
#
DISCID=d0104d0e
DTITLE=H ELLHNIKH SKHNH - THE SOUND OF KLIK Vol.4
DYEAR=1900
DGENRE=
TTITLE0=Metallic - NIKKO PATRELAKIS
TTITLE1=Noxi - KRAOUNAKIS
TTITLE2=Tipota - HRO
TTITLE3=Come - BELLA UNION
TTITLE4=I know u care - SPECTRO
TTITLE5=Izired - BLEND
TTITLE6=Taxidi sti gi - POPI ASTERIADI
TTITLE7=747 - H. ALEXIOU, M. DELTA
TTITLE8=Conserto - KALLIOPI VETTA
TTITLE9=Fovame - MPLE
TTITLE10=Domatio - ONEIROPAGIDA
TTITLE11=Voutia apo psila - ENDELEHEIA
TTITLE12=To fos - GOIN' THROUGH
TTITLE13=Asimenios kiklos - N. GRIGORIADIS
EXTD=
EXTT0=
EXTT1=
EXTT2=
EXTT3=
EXTT4=
EXTT5=
EXTT6=
EXTT7=
EXTT8=
EXTT9=
EXTT10=
EXTT11=
EXTT12=
EXTT13=
PLAYORDER=
